:SAMPLES-PER-SECOND 24
:FULLY-SPECIFIED
:DEGREES
416
root  0.650483 41.1972 21.3349 73.6346 -31.6745 -58.1764
RightUpLeg  -3.69895 -28.9953 -48.7883
RightLeg  95.4208 0.573044 -2.01524
RightFoot  7.76626 0.454559 -2.38224
RightToes  -1.74623e-010 0 -2.59999e-017
Spine  7.15818 7.06701 13.2337
Spine1  11.0114 3.84988 8.36132
HEad  -13.1207 -19.0884 25.0142
LeftShoulder1  1.17101 -1.08215 -18.9925
LeftArm  -10.3961 21.155 -6.35396
LeftForeArm  24.4458 -57.9097 -15.8914
LeftHand  -0.306847 3.1375 15.4636
RightShoulder  3.69219 6.03312 32.8347
RightArm  -3.03033 -23.5198 0.614323
RightForeArm  6.34748 41.534 9.51316
RightHand  -3.63168 10.0651 -27.1117
LeftUpLeg  -28.8177 25.3294 29.3823
LeftLeg  4.5936 25.17 -1.58956
LeftFoot  -2.82177 -0.384577 5.38809
LeftToes  -6.27559e-011 -2.10356e-011 8.24929e-012
417
root  1.20616 39.1649 20.9026 78.5398 -35.2746 -59.0083
RightUpLeg  -13.3686 -36.6249 -40.2132
RightLeg  105.846 0.542897 -0.642369
RightFoot  7.3067 0.345054 -1.79836
RightToes  -1.74623e-010 0 -2.59999e-017
Spine  7.2133 4.46765 2.61041
Spine1  12.9435 -0.690097 13.1861
HEad  -14.7561 -14.0672 25.5393
LeftShoulder1  1.75235 -2.71424 -21.8606
LeftArm  -13.055 5.03454 -11.9044
LeftForeArm  18.6806 -50.6601 -12.3761
LeftHand  -0.477772 2.11252 16.7713
RightShoulder  3.90107 6.18844 34.3598
RightArm  -18.5283 -26.1543 0.106698
RightForeArm  1.48319 41.9267 9.96893
RightHand  -3.37901 9.35283 -26.4736
LeftUpLeg  -46.5583 35.0861 15.2117
LeftLeg  23.5678 15.1113 6.74773
LeftFoot  -19.514 0.597603 7.15685
LeftToes  -6.27559e-011 -2.10356e-011 8.24929e-012
418
root  1.59464 38.2485 20.8894 81.526 -41.6675 -61.5112
RightUpLeg  -22.3444 -36.3509 -28.8956
RightLeg  109.85 -0.229889 1.53403
RightFoot  6.66968 -0.018522 0.425512
RightToes  -1.74623e-010 0 -2.59999e-017
Spine  10.0016 3.43871 -8.55899
Spine1  16.1158 -3.33628 15.5575
HEad  -14.8147 -11.4444 27.2565
LeftShoulder1  2.16023 -3.73592 -23.5962
LeftArm  -7.78793 -15.1548 -19.6425
LeftForeArm  15.6411 -39.2903 -8.17598
LeftHand  -0.727119 0.572716 17.5559
RightShoulder  4.1462 6.36291 36.1066
RightArm  -27.266 -23.7326 8.37602
RightForeArm  -3.07692 37.2204 8.7225
RightHand  -3.40392 9.6796 -26.1125
LeftUpLeg  -54.8199 39.9969 6.00568
LeftLeg  35.3458 10.2815 8.24911
LeftFoot  -22.5717 0.557149 4.23107
LeftToes  -6.27559e-011 -2.10356e-011 8.24929e-012
419
root  1.67458 37.9949 21.4679 85.9224 -46.9964 -66.7789
RightUpLeg  -25.0564 -33.7775 -19.423
RightLeg  105.208 -0.366072 2.2992
RightFoot  5.83234 -0.528434 3.76951
RightToes  -1.74623e-010 0 -2.59999e-017
Spine  12.9331 3.0274 -14.2721
Spine1  15.5504 -3.94987 14.4306
HEad  -12.5665 -12.1278 26.2247
LeftShoulder1  2.4674 -4.17137 -26.0102
LeftArm  8.56154 -27.3297 -30.2683
LeftForeArm  16.2176 -36.4206 -7.27053
LeftHand  -0.791288 -0.453815 15.8071
RightShoulder  4.21772 6.41979 36.575
RightArm  -20.5649 -23.1669 15.5705
RightForeArm  -2.54179 34.7737 7.93451
RightHand  -3.6018 10.8172 -25.7157
LeftUpLeg  -55.5821 45.3156 -0.708593
LeftLeg  36.9084 8.94175 7.5536
LeftFoot  -24.3006 0.710207 4.9286
LeftToes  -6.27559e-011 -2.10356e-011 8.24929e-012
420
root  1.44771 38.1335 22.6753 93.818 -49.7945 -75.0208
RightUpLeg  -24.5158 -32.4928 -13.9866
RightLeg  97.4267 -0.165022 2.8864
RightFoot  6.46968 -0.873779 5.85475
RightToes  -1.74623e-010 0 -2.59999e-017
Spine  12.7125 2.32841 -14.6181
Spine1  13.9632 -4.00169 13.3801
HEad  -12.4506 -13.5402 24.0156
LeftShoulder1  2.56055 -4.29283 -26.7351
LeftArm  20.4955 -26.2935 -42.4305
LeftForeArm  21.0828 -43.049 -9.03667
LeftHand  -0.669489 -0.156621 14.0904
RightShoulder  4.15645 6.381 36.1322
RightArm  -14.2451 -26.3368 18.4482
RightForeArm  2.51417 40.2455 9.3254
RightHand  -3.33994 10.0799 -25.01
LeftUpLeg  -53.6796 48.96 -3.75915
LeftLeg  35.1977 9.39866 7.46041
LeftFoot  -25.2347 0.581856 3.52828
LeftToes  -6.27559e-011 -2.10356e-011 8.24929e-012
421
root  1.00399 38.7828 24.2282 106.159 -51.1844 -88.3345
RightUpLeg  -24.6244 -32.3771 -11.4438
RightLeg  91.8748 0.156709 1.99504
RightFoot  6.95429 -0.883072 5.77378
RightToes  -1.74623e-010 0 -2.59999e-017
Spine  8.94589 1.26392 -11.7313
Spine1  15.1648 -3.77681 10.4645
HEad  -10.5295 -12.8636 22.5698
LeftShoulder1  2.55525 -4.28669 -26.692
LeftArm  23.6266 -18.6756 -49.5507
LeftForeArm  24.6889 -50.9283 -11.8962
LeftHand  -0.688094 0.136476 15.2508
RightShoulder  4.01365 6.26425 35.1906
RightArm  -12.5698 -26.941 20.2792
RightForeArm  6.77492 49.013 12.4469
RightHand  -2.9169 8.52189 -24.3136
LeftUpLeg  -48.7449 52.9007 -3.99851
LeftLeg  31.5824 11.8405 8.09405
LeftFoot  -21.8621 0.0868356 -0.453771
LeftToes  -6.27559e-011 -2.10356e-011 8.24929e-012
